<svg width="20" height="20" viewBox="0 0 20 20" fill="none" xmlns="http://www.w3.org/2000/svg">
<path d="M10 5V7.5L13.3333 4.16667L10 0.833336V3.33334C6.31667 3.33334 3.33333 6.31667 3.33333 10C3.33333 11.3083 3.71667 12.525 4.36667 13.55L5.58333 12.3333C5.20833 11.6417 5 10.8417 5 10C5 7.24167 7.24167 5 10 5ZM15.6333 6.45L14.4167 7.66667C14.7833 8.36667 15 9.15834 15 10C15 12.7583 12.7583 15 10 15V12.5L6.66667 15.8333L10 19.1667V16.6667C13.6833 16.6667 16.6667 13.6833 16.6667 10C16.6667 8.69167 16.2833 7.475 15.6333 6.45Z" fill="#1C1E22"/>
</svg>
