<svg width="20" height="20" viewBox="0 0 20 20" fill="none" xmlns="http://www.w3.org/2000/svg">
<path d="M18.8799 15.8247L11.3132 8.25799C12.0882 6.30799 11.6882 4.00799 10.1132 2.42466C8.19653 0.507994 5.21319 0.332994 3.08819 1.88299L6.28819 5.09133L5.10486 6.26633L1.91319 3.07466C0.363195 5.19133 0.538195 8.18299 2.45486 10.0913C4.00486 11.6413 6.2632 12.0497 8.19653 11.3247L15.7882 18.9163C16.1132 19.2413 16.6382 19.2413 16.9632 18.9163L18.8799 16.9997C19.2132 16.683 19.2132 16.158 18.8799 15.8247ZM16.3799 17.158L8.49653 9.27466C7.98819 9.64966 7.42153 9.87466 6.82986 9.95799C5.69653 10.1247 4.50486 9.78299 3.6382 8.91633C2.84653 8.13299 2.47986 7.08299 2.53819 6.04966L5.11319 8.62466L8.64653 5.09133L6.07153 2.51633C7.10486 2.45799 8.14653 2.82466 8.9382 3.60799C9.8382 4.50799 10.1799 5.74966 9.97153 6.90799C9.87153 7.49966 9.62153 8.04966 9.2382 8.54133L17.1132 16.4163L16.3799 17.158Z" fill="#1C1E22"/>
</svg>
