<svg width="50" height="50" viewBox="0 0 50 50" fill="none" xmlns="http://www.w3.org/2000/svg">
<g clip-path="url(#clip0_10854_3730)">
<rect width="50" height="50" rx="25" fill="black"/>
<rect width="50" height="50" rx="11.3861" fill="#E3E6EB"/>
<path d="M37.299 12.0176L36.3798 12.9728C33.3577 10.1538 29.2955 8.44576 24.8353 8.53146C15.7219 8.70657 8.47642 16.2359 8.65153 25.3494C8.82664 34.4628 16.356 41.7082 25.4694 41.5331C25.4694 41.5331 15.5169 39.0139 15.2519 25.2225C15.1468 19.7542 19.4938 15.2369 24.9621 15.1318C27.599 15.0811 30.0017 16.0782 31.8063 17.7272L30.416 19.1702C29.5259 20.0952 30.1993 21.6339 31.4814 21.6093L37.5982 21.4918C38.8919 21.4669 39.9196 20.399 39.8948 19.107L39.7772 12.9885C39.7526 11.7063 38.1891 11.0943 37.299 12.0176Z" fill="white"/>
<path d="M37.2609 29.194C35.8401 28.6874 34.2688 29.217 33.4229 30.4642C30.9516 34.1125 26.245 35.7792 21.9017 34.2305C16.75 32.3937 14.0633 26.7294 15.9001 21.5777C11.2675 34.5705 19.4337 40.5275 19.4337 40.5275C26.4649 43.2619 34.707 40.2734 38.8391 34.2422C40.0831 32.429 39.3331 29.9328 37.2609 29.194Z" fill="white"/>
</g>
<defs>
<clipPath id="clip0_10854_3730">
<rect width="50" height="50" rx="25" fill="white"/>
</clipPath>
</defs>
</svg>
