<svg width="20" height="20" viewBox="0 0 20 20" fill="none" xmlns="http://www.w3.org/2000/svg">
<path d="M10 1.66666C5.4 1.66666 1.66667 5.39999 1.66667 9.99999C1.66667 14.6 5.4 18.3333 10 18.3333C14.6 18.3333 18.3333 14.6 18.3333 9.99999C18.3333 5.39999 14.6 1.66666 10 1.66666ZM10 16.6667C6.325 16.6667 3.33333 13.675 3.33333 9.99999C3.33333 6.32499 6.325 3.33332 10 3.33332C13.675 3.33332 16.6667 6.32499 16.6667 9.99999C16.6667 13.675 13.675 16.6667 10 16.6667ZM10.2583 9.28332C8.78334 8.90832 8.30834 8.49999 8.30834 7.89166C8.30834 7.19166 8.96667 6.69999 10.0583 6.69999C11.2083 6.69999 11.6417 7.24999 11.675 8.06666H13.1C13.0583 6.94999 12.375 5.92499 11.025 5.59166V4.16666H9.08333V5.57499C7.825 5.84166 6.81667 6.65832 6.81667 7.91666C6.81667 9.40832 8.05833 10.1583 9.86667 10.5917C11.4917 10.975 11.8167 11.55 11.8167 12.15C11.8167 12.5917 11.4917 13.3083 10.0667 13.3083C8.73334 13.3083 8.20833 12.7083 8.13334 11.9417H6.7C6.78333 13.3583 7.83333 14.1583 9.08333 14.4167V15.8333H11.0333V14.4417C12.3 14.2 13.3 13.475 13.3083 12.1333C13.3 10.3 11.725 9.66666 10.2583 9.28332Z" fill="#1C1E22"/>
</svg>
