<svg width="30" height="30" viewBox="0 0 30 30" fill="none" xmlns="http://www.w3.org/2000/svg">
<rect x="0.0345267" y="0.0345267" width="29.9309" height="29.9309" rx="14.9655" fill="black"/>
<rect x="0.0345267" y="0.0345267" width="29.9309" height="29.9309" rx="14.9655" stroke="#E6E8EB" stroke-width="0.0690534"/>
<path fill-rule="evenodd" clip-rule="evenodd" d="M16.6089 4.8386L16.601 9.33575L16.593 13.8329L16.2231 12.7889C16.2229 12.7886 16.2225 12.7872 16.2223 12.7869L15.7442 22.7987C16.2143 24.1262 16.4662 24.8349 16.469 24.8377C16.4727 24.8414 16.7406 24.8576 17.0643 24.8736C18.0451 24.9223 19.2605 25.0266 20.1825 25.1412C20.396 25.1677 20.5797 25.1813 20.5908 25.1714C20.6019 25.1615 20.6079 20.5825 20.6042 14.996L20.5974 4.8386H16.6089ZM9.39471 4.82521V14.9929C9.39471 20.5851 9.40019 25.166 9.40689 25.1727C9.41358 25.1794 9.75991 25.1468 10.1765 25.1001C10.5931 25.0534 11.1688 24.9954 11.4559 24.9712C11.8962 24.934 13.2109 24.8495 13.3631 24.8486C13.4074 24.8483 13.4102 24.6198 13.4166 20.542L13.4234 16.2357L13.7415 17.1356C13.7907 17.2747 13.8061 17.3182 13.854 17.4537L14.332 7.44429C14.2307 7.15794 14.2838 7.30826 14.1677 6.9801C13.7772 5.87589 13.4458 4.93932 13.4312 4.89883L13.4048 4.82521H9.39471Z" fill="#B1060F" stroke="black" stroke-width="0.021415"/>
<path fill-rule="evenodd" clip-rule="evenodd" d="M9.39472 4.82521V10.5326L13.4153 21.1978C13.4157 20.9534 13.4162 20.8213 13.4166 20.542L13.4234 16.2357L13.7415 17.1356C15.5121 22.1458 16.4634 24.8321 16.469 24.8377C16.4727 24.8414 16.7406 24.8576 17.0643 24.8736C18.0451 24.9223 19.2605 25.0266 20.1825 25.1412C20.396 25.1677 20.5797 25.1813 20.5908 25.1714C20.5984 25.1646 20.6034 22.9194 20.6047 19.7521L16.6029 8.24702L16.601 9.33575L16.593 13.8329L16.2231 12.7889C15.8615 11.7688 15.6201 11.0866 14.1677 6.9801C13.7772 5.87589 13.4458 4.93932 13.4312 4.89883L13.4048 4.82521H9.39472Z" fill="url(#paint0_radial_3333_30905)"/>
<path fill-rule="evenodd" clip-rule="evenodd" d="M9.39484 4.82543L13.4235 16.2411V16.2359L13.7415 17.1358C15.5122 22.146 16.4634 24.8323 16.469 24.8379C16.4727 24.8416 16.7406 24.8578 17.0643 24.8739C18.0451 24.9225 19.2606 25.0268 20.1826 25.1414C20.395 25.1678 20.5777 25.1813 20.5905 25.1717L16.5931 13.831V13.8331L16.2231 12.7891C15.8616 11.7691 15.6202 11.0869 14.1678 6.98032C13.7772 5.8761 13.4458 4.93953 13.4313 4.89904L13.4048 4.82543L9.39484 4.82543Z" fill="#E50914"/>
<path fill-rule="evenodd" clip-rule="evenodd" d="M16.6089 4.8386L16.601 9.33575L16.593 13.8329L16.2231 12.7889C16.2229 12.7886 16.2225 12.7872 16.2223 12.7869L15.7442 22.7987C16.2143 24.1262 16.4662 24.8349 16.469 24.8377C16.4727 24.8414 16.7406 24.8576 17.0643 24.8736C18.0451 24.9223 19.2605 25.0266 20.1825 25.1412C20.396 25.1677 20.5797 25.1813 20.5908 25.1714C20.6019 25.1615 20.6079 20.5825 20.6042 14.996L20.5974 4.8386H16.6089ZM9.39471 4.82521V14.9929C9.39471 20.5851 9.40019 25.166 9.40689 25.1727C9.41358 25.1794 9.75991 25.1468 10.1765 25.1001C10.5931 25.0534 11.1688 24.9954 11.4559 24.9712C11.8962 24.934 13.2109 24.8495 13.3631 24.8486C13.4074 24.8483 13.4102 24.6198 13.4166 20.542L13.4234 16.2357L13.7415 17.1356C13.7907 17.2747 13.8061 17.3182 13.854 17.4537L14.332 7.44429C14.2307 7.15794 14.2838 7.30826 14.1677 6.9801C13.7772 5.87589 13.4458 4.93932 13.4312 4.89883L13.4048 4.82521H9.39471Z" fill="#B1060F" stroke="black" stroke-width="0.021415"/>
<path fill-rule="evenodd" clip-rule="evenodd" d="M9.39472 4.82521V10.5326L13.4153 21.1978C13.4157 20.9534 13.4162 20.8213 13.4166 20.542L13.4234 16.2357L13.7415 17.1356C15.5121 22.1458 16.4634 24.8321 16.469 24.8377C16.4727 24.8414 16.7406 24.8576 17.0643 24.8736C18.0451 24.9223 19.2605 25.0266 20.1825 25.1412C20.396 25.1677 20.5797 25.1813 20.5908 25.1714C20.5984 25.1646 20.6034 22.9194 20.6047 19.7521L16.6029 8.24702L16.601 9.33575L16.593 13.8329L16.2231 12.7889C15.8615 11.7688 15.6201 11.0866 14.1677 6.9801C13.7772 5.87589 13.4458 4.93932 13.4312 4.89883L13.4048 4.82521H9.39472Z" fill="url(#paint1_radial_3333_30905)"/>
<path fill-rule="evenodd" clip-rule="evenodd" d="M9.39484 4.82543L13.4235 16.2411V16.2359L13.7415 17.1358C15.5122 22.146 16.4634 24.8323 16.469 24.8379C16.4727 24.8416 16.7406 24.8578 17.0643 24.8739C18.0451 24.9225 19.2606 25.0268 20.1826 25.1414C20.395 25.1678 20.5777 25.1813 20.5905 25.1717L16.5931 13.831V13.8331L16.2231 12.7891C15.8616 11.7691 15.6202 11.0869 14.1678 6.98032C13.7772 5.8761 13.4458 4.93953 13.4313 4.89904L13.4048 4.82543L9.39484 4.82543Z" fill="#E50914"/>
<defs>
<radialGradient id="paint0_radial_3333_30905" cx="0" cy="0" r="1" gradientTransform="matrix(2.40096 -0.8313 30.4505 87.9447 14.8135 14.8816)" gradientUnits="userSpaceOnUse">
<stop/>
<stop offset="1" stop-opacity="0"/>
</radialGradient>
<radialGradient id="paint1_radial_3333_30905" cx="0" cy="0" r="1" gradientTransform="matrix(2.40096 -0.8313 30.4505 87.9447 14.8135 14.8816)" gradientUnits="userSpaceOnUse">
<stop/>
<stop offset="1" stop-opacity="0"/>
</radialGradient>
</defs>
</svg>
